<svg width="26" height="26" viewBox="0 0 26 26" fill="none" xmlns="http://www.w3.org/2000/svg">
<path d="M25.8881 9.15591C23.5675 3.681 18.2986 0 12.7824 0C10.7852 0 8.90207 0.46595 7.1521 1.39785C1.5408 4.44982 -1.14122 11.8817 0.456579 19.9194L0.646793 20.7814L0.7419 21.1774C0.779942 21.4104 0.856028 21.6201 0.913092 21.8297C0.951135 21.9229 0.970157 22.0161 0.989178 22.1326C1.0082 22.2258 1.04624 22.3423 1.08428 22.4355C1.25548 23.0179 1.76905 23.4373 2.30165 23.4373C2.49187 23.4373 2.64404 23.3907 2.77719 23.3208L4.62226 22.2957C4.83149 22.1792 5.02171 22.1326 5.26898 22.1326C5.80158 22.1326 6.31516 22.4588 6.63852 22.9713C7.93198 24.905 9.83411 26 11.8884 26C12.8205 26 13.7335 25.767 14.6085 25.3011C15.0079 25.0914 15.4074 24.8351 15.8258 24.509L16.6438 23.7634C17.1954 23.1577 17.5758 22.5753 17.8421 21.853C17.8611 21.8065 18.2225 20.8047 18.0704 17.2867C18.0323 16.8674 18.0133 16.4713 18.0133 16.052C18.0133 15.9122 18.0133 15.7724 18.0323 15.6326C18.2035 13.5125 19.6491 11.7652 21.4752 11.4624L25.1463 10.8566C25.4697 10.7867 25.717 10.5771 25.8691 10.2276C26.0403 9.92473 26.0403 9.50538 25.8881 9.15591ZM13.9427 20.0358C13.9047 19.9427 13.8857 19.8728 13.8476 19.8029C13.8096 19.7097 13.7906 19.6398 13.7525 19.5466L14.1139 19.7563L13.9427 20.0358ZM12.5351 18.2186C12.421 18.6846 12.4781 19.1971 12.7444 19.5932V19.6398C12.8395 19.9892 12.9726 20.362 13.1629 20.8047V20.828H13.1438C12.7634 21.0609 12.3449 21.2007 11.9074 21.2007C10.4428 21.2007 9.24445 19.733 9.24445 17.9391C9.24445 16.1452 10.4428 14.6774 11.9074 14.6774C13.2009 14.6774 14.2851 15.7957 14.5134 17.3333H13.6003C13.1248 17.31 12.7063 17.6595 12.5351 18.2186ZM14.4563 21.0609C14.6655 20.8047 14.8367 20.5251 15.0079 20.2222L17.0242 21.3638L17.0052 21.4104C16.7959 22.0161 16.4536 22.5287 15.94 23.0179L15.9209 22.9946C15.3503 22.3656 14.8558 21.7133 14.4563 21.0609ZM14.3802 18.6147L14.3992 18.5448H14.5514L14.5324 18.7079L14.3802 18.6147ZM17.1383 17.2634V17.3333H15.5405C15.2932 15.1434 13.7525 13.4892 11.9645 13.4892C9.96726 13.4892 8.35045 15.4695 8.35045 17.9158C8.35045 20.362 9.96726 22.3423 11.9645 22.3423C12.5732 22.3423 13.1819 22.1559 13.7145 21.7832C14.1329 22.4588 14.5895 23.0878 15.103 23.6935L15.1221 23.7168L14.9699 23.81C14.7797 23.9265 14.5704 24.0663 14.3041 24.2061C13.5623 24.6021 12.7824 24.8118 11.9645 24.8118C10.2145 24.8118 8.5787 23.8566 7.47546 22.2025C6.96189 21.4104 6.18201 20.9444 5.34507 20.9444C4.96464 20.9444 4.62226 21.0376 4.2989 21.224L2.45382 22.2258C2.39676 22.2491 2.35872 22.2724 2.32067 22.2724C2.20655 22.2724 2.0734 22.1792 2.03535 22.0161L1.97829 21.8065C1.95927 21.7599 1.94025 21.69 1.94025 21.6434C1.92122 21.5968 1.92123 21.5502 1.9022 21.5036L1.88318 21.4803C1.73101 21.0842 1.52178 20.1756 1.40765 19.6398L1.36961 19.4068C0.228323 13.5125 1.69297 5.70789 7.58959 2.51613C9.18739 1.65412 10.9564 1.21147 12.8395 1.21147C17.9943 1.21147 22.9208 4.6362 25.0702 9.73835L21.3991 10.3441C19.1356 10.7168 17.3476 12.9068 17.1193 15.5394C17.1003 15.7258 17.1003 15.8889 17.1003 16.0753C17.1003 16.4946 17.1193 16.8674 17.1383 17.2634ZM17.2715 20.2222L15.4264 19.1738C15.4644 18.9875 15.5025 18.7312 15.5405 18.5215H17.2524V18.6846C17.2715 19.1039 17.3095 19.6864 17.2715 20.2222Z" fill="#008CFF"/>
</svg>
