<svg width="26" height="34" viewBox="0 0 26 34" fill="none" xmlns="http://www.w3.org/2000/svg">
<path d="M7.52838 33.4275C7.27775 33.4275 7.07724 33.2284 7.07724 32.9795V4.40556C7.07724 3.50952 7.30281 2.68814 7.70382 1.99122L8.53091 0.547585C8.73141 0.199123 9.0823 0 9.43318 0C9.78407 0 10.135 0.199123 10.3355 0.547585L11.1625 1.99122C11.5743 2.73019 11.7899 3.56103 11.7891 4.40556V32.9546C11.7891 33.2035 11.5886 33.4026 11.338 33.4026L7.52838 33.4275ZM7.97951 32.5066H10.8618V21.7042L10.3104 21.9283C10.0096 22.0527 9.73394 22.1025 9.43318 22.1025H9.40812C9.10736 22.1025 8.83167 22.0527 8.53091 21.9283L7.97951 21.7042V32.5066ZM9.45825 17.1991C8.65622 17.1991 7.97951 17.8214 7.97951 18.593V19.7628C7.97951 20.5344 8.6061 21.1567 9.38306 21.1567H9.40812C10.1851 21.1567 10.8117 20.5344 10.8117 19.7628V18.593C10.8618 17.8214 10.2352 17.1991 9.45825 17.1991ZM9.43318 16.2533C9.75901 16.2533 10.0347 16.3031 10.3355 16.4275L10.8869 16.6515V4.38067C10.8869 3.65886 10.7114 2.98682 10.3605 2.43924L9.43318 0.846267L8.50584 2.43924C8.18002 2.98682 7.97951 3.70864 7.97951 4.38067V16.6018L8.53091 16.3777C8.8066 16.3031 9.10736 16.2533 9.43318 16.2533ZM15.1727 33.4275C14.922 33.4275 14.7215 33.2284 14.7215 32.9795V4.40556C14.7215 3.50952 14.9471 2.68814 15.3481 1.99122L16.1752 0.547585C16.3757 0.199123 16.7266 0 17.0775 0C17.4284 0 17.7792 0.199123 17.9798 0.547585L18.8068 1.99122C19.2185 2.73019 19.4342 3.56103 19.4334 4.40556V32.9546C19.4334 33.2035 19.2329 33.4026 18.9823 33.4026L15.1727 33.4275ZM15.6238 32.5066H18.5061V21.7042L17.9547 21.9283C17.6539 22.0527 17.3782 22.1025 17.0775 22.1025H17.0524C16.7517 22.1025 16.476 22.0527 16.1752 21.9283L15.6238 21.7042V32.5066ZM17.1025 17.1991C16.3005 17.1991 15.6238 17.8214 15.6238 18.593V19.7628C15.6238 20.5344 16.2504 21.1567 17.0274 21.1567H17.0524C17.8294 21.1567 18.456 20.5344 18.456 19.7628V18.593C18.5061 17.8214 17.8795 17.1991 17.1025 17.1991ZM17.0274 16.2533C17.3532 16.2533 17.6289 16.3031 17.9296 16.4275L18.481 16.6515V4.38067C18.481 3.68375 18.3056 2.98682 17.9547 2.43924L17.0274 0.846267L16.0749 2.43924C15.7491 2.98682 15.5486 3.70864 15.5486 4.38067V16.6018L16.1 16.3777C16.4509 16.3031 16.7517 16.2533 17.0274 16.2533ZM3.49319 33.4275C3.26762 33.4275 3.06712 33.2533 3.04205 33.0044L1.68864 16.4275L0.510664 16.6018H0.460538C0.234969 16.6018 0.0344619 16.4275 0.0093986 16.2035C-0.0156647 16.0791 0.00939936 15.9795 0.0845891 15.855C0.159779 15.7804 0.260031 15.6808 0.41041 15.6808L1.63851 15.5066L1.56332 14.3368C1.56332 14.2123 1.58838 14.1127 1.68864 13.9883C1.76383 13.9136 1.88914 13.8389 2.01446 13.8141H2.03952C2.26509 13.8141 2.4656 13.9883 2.49066 14.2372L2.56585 15.3572L4.24509 15.1332H4.29522C4.52078 15.1332 4.72129 15.3075 4.74636 15.5315C4.77142 15.6559 4.74635 15.7555 4.67116 15.8799C4.59597 15.9546 4.49572 16.0542 4.34534 16.0542L2.61598 16.3031L3.96939 32.9297C3.96939 33.0542 3.94433 33.1537 3.84408 33.2782C3.76889 33.3529 3.64357 33.4275 3.51825 33.4524C3.51825 33.4275 3.51826 33.4275 3.49319 33.4275ZM22.1403 34H22.0901C21.9648 34 21.8646 33.9253 21.7643 33.8258C21.6891 33.7511 21.639 33.6018 21.639 33.4773L23.3684 16.3777L22.04 16.2533C21.9147 16.2533 21.8144 16.2035 21.7142 16.0791C21.6139 15.9546 21.5889 15.8799 21.5889 15.7306C21.6139 15.5066 21.7894 15.3075 22.04 15.3075H22.0651L23.3934 15.4319L23.5187 14.1625C23.5438 13.9385 23.7443 13.7643 23.9699 13.7643H24.02C24.1453 13.7643 24.2456 13.8141 24.3458 13.9385C24.421 14.0132 24.4711 14.1625 24.4711 14.287L24.3458 15.5066L25.5739 15.5813C25.8246 15.6061 26 15.8053 26 16.0791C25.9749 16.3031 25.7744 16.5022 25.5489 16.5022H25.5238L24.2957 16.4275L22.5663 33.552C22.5663 33.8258 22.3658 34 22.1403 34Z" fill="#008CFF"/>
</svg>
