<svg width="8" height="34" viewBox="0 0 8 34" fill="none" xmlns="http://www.w3.org/2000/svg">
<path d="M3.95772 34C1.7759 34 0 31.5328 0 28.5017V28.4782L0.40592 20.7712C0.55814 18.2806 0.55814 15.7194 0.40592 13.2287L0 5.52177V5.49827C0 2.46717 1.7759 0 3.95772 0H4.04228C6.2241 0 8 2.46717 8 5.49827V5.52177L7.59408 13.2287C7.44186 15.7194 7.44186 18.2806 7.59408 20.7712L8 28.4782V28.5017C8 31.5328 6.2241 34 4.04228 34H3.95772ZM3.95772 0.916379C2.16491 0.916379 0.676533 2.96061 0.65962 5.47477V5.49827L1.06554 13.1818C1.21776 15.7429 1.21776 18.3041 1.06554 20.8652L0.65962 28.5487V28.5722C0.676533 31.0629 2.14799 33.1306 3.95772 33.1306H4.04228C5.8351 33.1306 7.32347 31.0864 7.34038 28.5722V28.5487L6.93446 20.8652C6.78224 18.3041 6.78224 15.7429 6.93446 13.1818L7.34038 5.49827V5.47477C7.32347 2.9841 5.85201 0.916379 4.04228 0.916379H3.95772Z" fill="#008CFF"/>
</svg>
